HIERARCHY
ROOT Hips
{
	OFFSET -3.958830 18.904000 13.208200
	CHANNELS 6 Xposition Yposition Zposition Zrotation Yrotation Xrotation 
	JOINT LHipJoint
	{
		OFFSET 0.000000 0.000000 0.000000
		CHANNELS 3 Zrotation Yrotation Xrotation
		JOINT LeftUpLeg
		{
			OFFSET 1.800000 -1.400000 0.085000
			CHANNELS 3 Zrotation Yrotation Xrotation
			JOINT LeftLeg
			{
				OFFSET 2.215000 -6.000000 0.000000
				CHANNELS 3 Zrotation Yrotation Xrotation
				JOINT LeftFoot
				{
					OFFSET 2.500000 -6.900000 0.000000
					CHANNELS 3 Zrotation Yrotation Xrotation
					JOINT LeftToeBase
					{
						OFFSET 0.200000 -0.500000 1.950000
						CHANNELS 3 Zrotation Yrotation Xrotation
						End Site
						{
							OFFSET 0.000000 0.000000 0.000000
						}
					}
				}
			}
		}
	}
	JOINT RHipJoint
	{
		OFFSET 0.000000 0.000000 0.000000
		CHANNELS 3 Zrotation Yrotation Xrotation
		JOINT RightUpLeg
		{
			OFFSET -1.800000 -1.400000 0.085000
			CHANNELS 3 Zrotation Yrotation Xrotation
			JOINT RightLeg
			{
				OFFSET -2.215000 -6.000000 0.000000
				CHANNELS 3 Zrotation Yrotation Xrotation
				JOINT RightFoot
				{
					OFFSET -2.500000 -6.900000 0.000000
					CHANNELS 3 Zrotation Yrotation Xrotation
					JOINT RightToeBase
					{
						OFFSET -0.200000 -0.500000 1.950000
						CHANNELS 3 Zrotation Yrotation Xrotation
						End Site
						{
							OFFSET 0.000000 0.000000 0.000000
						}
					}
				}
			}
		}
	}
	JOINT LowerBack
	{
		OFFSET 0.000000 0.000000 0.000000
		CHANNELS 3 Zrotation Yrotation Xrotation
		JOINT Spine
		{
			OFFSET -0.087000 1.940000 -0.288900
			CHANNELS 3 Zrotation Yrotation Xrotation
			JOINT Spine1
			{
				OFFSET 0.000000 1.950000 0.060000
				CHANNELS 3 Zrotation Yrotation Xrotation
				JOINT Neck
				{
					OFFSET 0.000000 0.000000 0.000000
					CHANNELS 3 Zrotation Yrotation Xrotation
					JOINT Neck1
					{
						OFFSET 0.000000 1.600000 0.340000
						CHANNELS 3 Zrotation Yrotation Xrotation
						JOINT Head
						{
							OFFSET 0.000000 1.667000 -0.240000
							CHANNELS 3 Zrotation Yrotation Xrotation
							End Site
							{
								OFFSET 0.000000 0.000000 0.000000
							}
						}
					}
				}
				JOINT LeftShoulder
				{
					OFFSET 0.000000 0.000000 0.000000
					CHANNELS 3 Zrotation Yrotation Xrotation
					JOINT LeftArm
					{
						OFFSET 2.700000 1.550000 -0.730000
						CHANNELS 3 Zrotation Yrotation Xrotation
						JOINT LeftForeArm
						{
							OFFSET 5.450000 0.000000 0.000000
							CHANNELS 3 Zrotation Yrotation Xrotation
							JOINT LeftHand
							{
								OFFSET 3.450000 0.000000 0.000000
								CHANNELS 3 Zrotation Yrotation Xrotation
								JOINT LeftHandIndex1
								{
									OFFSET 0.750000 0.000000 0.000000
									CHANNELS 3 Zrotation Yrotation Xrotation
									End Site
									{
										OFFSET 0.000000 0.000000 0.000000
									}
								}
							}
						}
					}
				}
				JOINT RightShoulder
				{
					OFFSET 0.000000 0.000000 0.000000
					CHANNELS 3 Zrotation Yrotation Xrotation
					JOINT RightArm
					{
						OFFSET -2.700000 1.550000 -0.730000
						CHANNELS 3 Zrotation Yrotation Xrotation
						JOINT RightForeArm
						{
							OFFSET -5.450000 0.000000 0.000000
							CHANNELS 3 Zrotation Yrotation Xrotation
							JOINT RightHand
							{
								OFFSET -3.450000 0.000000 0.000000
								CHANNELS 3 Zrotation Yrotation Xrotation
								JOINT RightHandIndex1
								{
									OFFSET -0.750000 0.000000 0.000000
									CHANNELS 3 Zrotation Yrotation Xrotation
									End Site
									{
										OFFSET 0.000000 0.000000 0.000000
									}
								}
							}
						}
					}
				}
			}
		}
	}
}
MOTION
Frames: 5
Frame Time: 0.016667
0.274690 16.191490 -1.554660 -3.299591 -25.512265 -6.804528 -15.086825 14.926125 3.175096 15.667670 -3.930478 -15.272463 -2.865090 8.649737 34.817431 -0.907536 7.378692 1.907891 -0.052360 -0.384940 -0.154230 18.063222 -11.020576 1.793473 -16.658079 -1.981762 -22.193678 -8.111725 -3.579193 19.908339 -0.163830 -2.894905 3.437191 -0.019600 0.490040 0.063970 -2.836291 -4.900424 -7.542188 4.961271 -4.854664 22.906471 -6.270920 -3.096458 6.049717 1.885201 -6.455977 -11.502691 -20.786976 11.096108 38.668938 -4.265820 5.061160 -26.511320 -19.440974 -15.600433 1.840809 -49.573093 -31.078900 2.835358 21.980609 -16.962180 -6.833401 -3.900881 2.203017 1.207420 0.052260 0.016140 0.124460 15.739557 16.066223 9.330601 69.148964 4.941079 -22.679958 -33.981086 54.420581 -19.038827 1.240611 -0.467173 -0.780500 0.801490 0.530230 -0.353810 
0.253720 16.151480 -1.554380 -3.398434 -26.519988 -7.026030 -15.064205 14.862059 3.216083 16.217954 -4.024488 -15.319346 -3.163227 9.168878 36.337767 -0.844860 7.691640 1.797077 -0.062620 -0.388630 -0.168000 18.092186 -11.046562 1.792322 -15.971802 -1.810313 -22.761488 -9.203618 -3.312696 20.771464 -0.160280 -2.929822 3.446796 -0.020590 0.498920 0.041760 -2.904816 -4.733034 -7.563377 5.352427 -4.962796 23.033813 -6.721001 -3.075728 5.810555 2.094164 -6.674708 -11.691040 -21.288054 11.599787 39.051614 -4.444210 5.313440 -25.882420 -20.412858 -15.804090 2.267060 -48.189055 -29.228194 0.729184 24.215004 -20.863180 -8.162730 -3.865823 2.170563 1.202290 0.056110 0.005150 0.130080 16.321864 16.612554 9.295284 67.963226 5.274222 -22.027978 -35.179489 52.647444 -18.875951 1.251495 -0.461867 -0.791980 0.816730 0.528130 -0.351260 
0.214340 16.082930 -1.550820 -3.838042 -28.050525 -7.329251 -15.019600 14.734647 3.287945 17.714237 -4.025923 -15.203325 -4.138034 10.186265 38.088800 -0.733679 8.175798 1.612596 -0.050840 -0.360740 -0.169760 18.158102 -11.062630 1.778158 -14.358854 -1.425494 -23.401700 -11.242907 -2.772226 22.457625 -0.198166 -3.025249 3.418162 -0.014610 0.486950 0.036170 -3.080491 -4.480040 -7.559545 6.563893 -5.656338 23.637680 -7.732947 -3.570311 4.974084 2.308648 -7.422462 -11.578330 -23.099528 13.157237 38.987041 -4.884380 6.040870 -26.455280 -21.920328 -15.045981 2.585802 -46.526592 -26.160573 -2.281015 28.447392 -27.288229 -10.774428 -3.805566 2.129976 1.203010 0.038360 0.023990 0.139530 17.376863 16.308566 8.651094 65.815609 6.200874 -20.347935 -36.356863 49.417463 -17.819565 1.298371 -0.472771 -0.778730 0.824030 0.516420 -0.338890 
0.156660 16.006100 -1.547200 -4.437239 -30.017018 -8.134954 -14.963671 14.581657 3.344042 19.708878 -3.860424 -14.223655 -5.245449 11.519384 40.142955 -0.596538 8.773555 1.372422 -0.000890 -0.286330 -0.159690 18.239140 -11.089433 1.771649 -12.197597 -0.903910 -23.460748 -13.833375 -1.995263 24.498580 -0.285682 -3.210332 3.351930 0.010840 0.441700 0.028860 -3.308476 -4.144751 -7.533901 7.802511 -6.669206 24.625027 -8.689238 -4.340824 4.442069 2.230210 -8.352310 -11.914952 -26.011110 15.634907 39.302228 -4.223780 6.768680 -28.482830 -22.838875 -14.890474 3.481125 -45.099487 -22.132082 -5.621720 35.152831 -33.966340 -14.936495 -3.708942 2.084204 1.234130 -0.016880 0.069530 0.150880 18.508027 16.675617 8.082601 63.087309 7.813318 -18.701488 -37.582331 46.059210 -16.902539 1.347602 -0.480339 -0.750870 0.829580 0.495640 -0.328880 
0.088870 15.929840 -1.546360 -5.294979 -32.027143 -9.082672 -14.963622 14.498679 3.406214 22.101036 -3.566515 -13.010420 -5.922970 12.853664 42.257956 -0.441784 9.377558 1.143108 0.050230 -0.215780 -0.135040 18.268316 -11.015244 1.808604 -9.559553 -0.133851 -23.216909 -16.762945 -0.976732 27.027755 -0.404370 -3.522245 3.257681 0.031440 0.396860 0.019990 -3.353968 -4.033846 -7.587992 8.232881 -7.356980 25.729626 -8.231046 -4.772250 4.340234 2.207674 -8.717823 -12.786295 -28.186254 18.152890 41.136949 -3.839040 7.883540 -29.760210 -24.336865 -16.125065 4.970275 -43.618596 -17.828506 -8.874929 44.083723 -38.302691 -20.261111 -3.644183 2.018555 1.270040 -0.064870 0.120310 0.167710 20.271901 18.460792 8.069975 58.499432 9.052922 -17.674164 -39.161622 42.858179 -16.392103 1.391549 -0.492383 -0.727960 0.836590 0.461570 -0.325150 
